<?xml version="1.0" encoding="UTF-8"?><svg id="a" xmlns="http://www.w3.org/2000/svg" viewBox="0 0 1658.78 514.93"><defs><style>.b{fill:#4c9bd6;}.c{fill:#e42527;}.d{fill:#7b287d;}</style></defs><path class="c" d="M342.71,300.83c-11.3-108.5-92.7-118.3-93.2-118.8-8.2-1-16.4-1.5-24.1-1.5-94.2,0-119.3,74.8-120.8,79.9-.5,3.6-9.7,54.8-5.6,107,1.5-.5,3.6-.5,5.1-.5,11.8,0,22,8.2,24.6,19.5,4.1,17.9,.5,38.4-.5,44.5,46.6,46.6,134.1,76.8,157.2,84l-32.3-173.6c-7.2-.5-25.6-2-53.2-9.2-20-5.6-22.5-15.9-22.5-21.5,.5-12.3,14.3-24.1,33.8-28.7,4.6-1,9.7-1.5,14.8-1.5,25.6,0,44.5,13.8,45.6,14.3l1.5,1,5.6,68.1,16.9,6.7,8.2-9.7-11.3-63,1-1.5c8.7-10.8,16.9-16.4,24.6-16.4,9.2,0,16.4,8.7,18.4,23.6,2.6,18.9-11.3,31.2-16.4,34.8l8.7,173.1c12.8-12.3,15.4-33.3,15.9-35.8-2.5-41.1-2-169.1-2-174.8h0Z"/><path class="b" d="M238.31,136.03c22,0,37.9,4.1,41,4.6h15.4c7.7-7.7,18.4-23,30.2-51.7l4.6-17.8s-30.7-23.2-108.1-15.5c-77.8,7.7-198.1,76.8-167.4,242.2l42.5-30.7,2-8.7c22-106.5,97.3-122.4,139.8-122.4h0Z"/><path class="d" d="M278.21,148.33s-16.9-4.6-39.4-4.6c-43,0-95.7,15.4-122.4,81.9,17.9-24.1,51.2-51.7,109.6-51.7,8.2,0,16.4,.5,24.6,1.5,.5,0,12.8,1.5,28.7,9.2l16.4-36.4-17.5,.1Z"/><path class="b" d="M39.21,302.83S-2.19,167.83,104.81,81.43c118.9-96,227.7-20.2,227.7-20.2,0,0-112.5-59.4-216.1,24.5C10.31,171.63,39.21,302.83,39.21,302.83Z"/><path class="b" d="M25.81,312.43S-18.19,149.33,88.81,62.93c118.9-96,251.2-13,251.2-13,0,0-135.9-66.7-239.6,17.2C-5.69,153.03,25.81,312.43,25.81,312.43Z"/><path class="b" d="M13.01,315.93S-41.59,141.73,72.91,49.43c127.3-102.5,268.9-13.8,268.9-13.8,0,0-145.5-71.3-256.4,18.3C-28.19,145.73,13.01,315.93,13.01,315.93Z"/></svg>