<?xml version="1.0" encoding="UTF-8"?><svg xmlns="http://www.w3.org/2000/svg" viewBox="0 0 1658.78 514.93"><defs><style>.c{isolation:isolate;}.d{fill:#4c9bd6;}.e{fill:#e42527;}.f{fill:#7b287d;}.g{fill:#231f20;}</style></defs><g id="a"><path class="e" d="M342.71,300.83c-11.3-108.5-92.7-118.3-93.2-118.8-8.2-1-16.4-1.5-24.1-1.5-94.2,0-119.3,74.8-120.8,79.9-.5,3.6-9.7,54.8-5.6,107,1.5-.5,3.6-.5,5.1-.5,11.8,0,22,8.2,24.6,19.5,4.1,17.9,.5,38.4-.5,44.5,46.6,46.6,134.1,76.8,157.2,84l-32.3-173.6c-7.2-.5-25.6-2-53.2-9.2-20-5.6-22.5-15.9-22.5-21.5,.5-12.3,14.3-24.1,33.8-28.7,4.6-1,9.7-1.5,14.8-1.5,25.6,0,44.5,13.8,45.6,14.3l1.5,1,5.6,68.1,16.9,6.7,8.2-9.7-11.3-63,1-1.5c8.7-10.8,16.9-16.4,24.6-16.4,9.2,0,16.4,8.7,18.4,23.6,2.6,18.9-11.3,31.2-16.4,34.8l8.7,173.1c12.8-12.3,15.4-33.3,15.9-35.8-2.5-41.1-2-169.1-2-174.8h0Z"/><path class="d" d="M238.31,136.03c22,0,37.9,4.1,41,4.6h15.4c7.7-7.7,18.4-23,30.2-51.7l4.6-17.8s-30.7-23.2-108.1-15.5c-77.8,7.7-198.1,76.8-167.4,242.2l42.5-30.7,2-8.7c22-106.5,97.3-122.4,139.8-122.4h0Z"/><path class="f" d="M278.21,148.33s-16.9-4.6-39.4-4.6c-43,0-95.7,15.4-122.4,81.9,17.9-24.1,51.2-51.7,109.6-51.7,8.2,0,16.4,.5,24.6,1.5,.5,0,12.8,1.5,28.7,9.2l16.4-36.4-17.5,.1Z"/><path class="d" d="M39.21,302.83S-2.19,167.83,104.81,81.43c118.9-96,227.7-20.2,227.7-20.2,0,0-112.5-59.4-216.1,24.5C10.31,171.63,39.21,302.83,39.21,302.83Z"/><path class="d" d="M25.81,312.43S-18.19,149.33,88.81,62.93c118.9-96,251.2-13,251.2-13,0,0-135.9-66.7-239.6,17.2C-5.69,153.03,25.81,312.43,25.81,312.43Z"/><path class="d" d="M13.01,315.93S-41.59,141.73,72.91,49.43c127.3-102.5,268.9-13.8,268.9-13.8,0,0-145.5-71.3-256.4,18.3C-28.19,145.73,13.01,315.93,13.01,315.93Z"/></g><g id="b"><g class="c"><path class="g" d="M398.09,382.27v-5.16c.46,.42,1.01,.8,1.65,1.14,.64,.34,1.32,.62,2.03,.85s1.43,.41,2.15,.54c.72,.13,1.38,.19,1.98,.19,2.11,0,3.67-.35,4.71-1.05s1.55-1.72,1.55-3.05c0-.72-.17-1.34-.52-1.86-.34-.53-.83-1.01-1.44-1.44-.62-.43-1.34-.85-2.18-1.25-.84-.4-1.73-.82-2.68-1.25-1.02-.55-1.98-1.1-2.86-1.66-.88-.56-1.65-1.18-2.31-1.86-.65-.68-1.17-1.45-1.54-2.31-.37-.86-.56-1.86-.56-3.01,0-1.42,.32-2.65,.96-3.7s1.48-1.91,2.53-2.59c1.05-.68,2.24-1.19,3.57-1.52s2.7-.5,4.08-.5c3.16,0,5.46,.36,6.91,1.07v4.95c-1.71-1.23-3.92-1.85-6.61-1.85-.74,0-1.48,.07-2.22,.21-.74,.14-1.4,.37-1.98,.69-.58,.32-1.06,.74-1.42,1.24-.37,.51-.55,1.12-.55,1.83,0,.67,.14,1.26,.42,1.75s.69,.94,1.23,1.35c.54,.41,1.2,.8,1.98,1.19,.78,.39,1.68,.8,2.71,1.25,1.05,.55,2.05,1.12,2.98,1.73s1.75,1.27,2.46,2c.71,.73,1.27,1.54,1.68,2.43,.41,.89,.62,1.91,.62,3.04,0,1.53-.31,2.82-.93,3.87s-1.45,1.91-2.5,2.57c-1.05,.66-2.25,1.14-3.61,1.43-1.36,.29-2.8,.44-4.32,.44-.51,0-1.13-.04-1.86-.12-.74-.08-1.49-.19-2.26-.34s-1.5-.33-2.19-.54c-.69-.21-1.24-.45-1.66-.72Z"/><path class="g" d="M431.97,383.98c-3.33,0-5.98-1.01-7.97-3.02-1.99-2.01-2.98-4.68-2.98-8.01,0-3.62,1.04-6.45,3.11-8.49,2.07-2.04,4.86-3.05,8.37-3.05s5.99,.99,7.88,2.97c1.88,1.98,2.82,4.72,2.82,8.23s-1.01,6.19-3.04,8.26c-2.03,2.07-4.76,3.11-8.18,3.11Zm.23-18.68c-1.91,0-3.42,.67-4.53,2-1.11,1.33-1.66,3.17-1.66,5.52s.56,4.04,1.68,5.34,2.62,1.95,4.51,1.95,3.4-.64,4.43-1.92,1.55-3.09,1.55-5.45-.52-4.2-1.55-5.5c-1.03-1.29-2.51-1.94-4.43-1.94Z"/><path class="g" d="M467.36,383.47h-4.89v-12.15c0-4.03-1.42-6.04-4.27-6.04-1.49,0-2.72,.56-3.69,1.67-.97,1.12-1.45,2.52-1.45,4.22v12.3h-4.91v-21.56h4.91v3.58h.08c1.61-2.72,3.94-4.08,6.99-4.08,2.34,0,4.13,.76,5.37,2.28,1.23,1.52,1.85,3.72,1.85,6.6v13.18Z"/><path class="g" d="M489.87,383.47h-4.74v-3.37h-.08c-1.49,2.58-3.67,3.87-6.55,3.87-2.12,0-3.78-.58-4.98-1.73-1.2-1.15-1.8-2.67-1.8-4.57,0-4.07,2.34-6.44,7.03-7.12l6.4-.91c0-3.07-1.46-4.61-4.38-4.61-2.57,0-4.89,.88-6.95,2.65v-4.27c2.27-1.35,4.9-2.02,7.88-2.02,5.45,0,8.17,2.68,8.17,8.04v14.02Zm-4.72-10.59l-4.53,.63c-1.4,.18-2.46,.52-3.17,1.02-.71,.5-1.06,1.37-1.06,2.62,0,.91,.33,1.66,.98,2.24,.65,.58,1.53,.87,2.62,.87,1.49,0,2.72-.52,3.7-1.57,.98-1.04,1.46-2.36,1.46-3.95v-1.87Z"/><path class="g" d="M508.34,366.57c-.59-.46-1.44-.69-2.55-.69-1.45,0-2.65,.65-3.62,1.96-.97,1.31-1.45,3.08-1.45,5.33v10.32h-4.89v-21.56h4.89v4.44h.08c.48-1.52,1.21-2.7,2.2-3.55,.99-.85,2.09-1.27,3.32-1.27,.88,0,1.56,.13,2.02,.4v4.63Z"/><path class="g" d="M524.78,383.98c-2.18,0-4.15-.37-5.92-1.12-1.77-.74-3.28-1.79-4.53-3.13s-2.22-2.94-2.91-4.81c-.69-1.87-1.03-3.93-1.03-6.19,0-2.41,.35-4.6,1.04-6.57,.69-1.96,1.68-3.64,2.97-5.03,1.28-1.39,2.85-2.46,4.69-3.22,1.84-.76,3.9-1.14,6.17-1.14,2.11,0,4.03,.37,5.77,1.12,1.74,.74,3.23,1.79,4.46,3.13,1.23,1.34,2.19,2.94,2.87,4.81,.68,1.87,1.02,3.92,1.02,6.17,0,2.98-.5,5.58-1.5,7.82-1,2.24-2.4,4.04-4.21,5.4l8.76,6.32h-7.62l-5.39-4.19c-.72,.2-1.46,.35-2.23,.46-.77,.11-1.58,.17-2.42,.17Zm.23-26.8c-1.38,0-2.64,.27-3.78,.81-1.14,.54-2.13,1.31-2.96,2.3-.83,.99-1.47,2.17-1.93,3.55-.46,1.38-.68,2.91-.68,4.59s.22,3.19,.66,4.57c.44,1.38,1.06,2.55,1.86,3.53,.8,.98,1.76,1.73,2.88,2.27,1.12,.54,2.37,.81,3.73,.81,1.45,0,2.74-.25,3.9-.76,1.15-.51,2.13-1.23,2.94-2.18s1.43-2.11,1.86-3.48,.65-2.94,.65-4.7-.21-3.4-.63-4.8c-.42-1.4-1.02-2.59-1.81-3.55-.79-.96-1.74-1.7-2.87-2.2-1.13-.5-2.4-.76-3.82-.76Z"/><path class="g" d="M563.19,383.47h-4.88v-3.41h-.08c-1.42,2.61-3.62,3.92-6.61,3.92-5.1,0-7.64-3.06-7.64-9.18v-12.89h4.88v12.38c0,3.88,1.5,5.81,4.48,5.81,1.45,0,2.64-.53,3.57-1.6,.93-1.07,1.4-2.46,1.4-4.19v-12.4h4.88v21.56Z"/><path class="g" d="M574.52,380.36h-.08v3.12h-4.89v-31.92h4.89v14.15h.08c1.67-2.86,4.11-4.29,7.33-4.29,2.72,0,4.85,.96,6.39,2.9,1.54,1.93,2.31,4.52,2.31,7.76,0,3.61-.86,6.5-2.59,8.66s-4.08,3.25-7.07,3.25c-2.81,0-4.93-1.21-6.36-3.62Zm-.13-8.57v2.67c0,1.57,.5,2.91,1.51,4,1,1.1,2.28,1.64,3.82,1.64,1.81,0,3.23-.71,4.26-2.12,1.03-1.41,1.55-3.38,1.55-5.91,0-2.12-.48-3.78-1.44-4.98s-2.26-1.8-3.91-1.8c-1.74,0-3.14,.62-4.2,1.85-1.06,1.24-1.59,2.78-1.59,4.63Z"/><path class="g" d="M613.78,374.02h-14.7c.06,1.99,.67,3.53,1.84,4.61s2.78,1.62,4.83,1.62c2.3,0,4.41-.69,6.34-2.06v3.94c-1.97,1.24-4.56,1.85-7.79,1.85s-5.66-.98-7.46-2.94c-1.8-1.96-2.71-4.71-2.71-8.26,0-3.35,.99-6.09,2.98-8.2s4.45-3.17,7.4-3.17,5.23,.95,6.84,2.84c1.61,1.89,2.42,4.53,2.42,7.9v1.87Zm-4.72-3.45c-.01-1.75-.43-3.12-1.24-4.1-.81-.97-1.94-1.46-3.37-1.46s-2.59,.51-3.57,1.54-1.58,2.37-1.8,4.02h9.98Z"/></g><g class="c"><path class="g" d="M634.1,380.36h-.08v13.03h-3.45v-31.48h3.45v3.79h.08c1.7-2.86,4.18-4.29,7.45-4.29,2.78,0,4.95,.96,6.51,2.9,1.56,1.93,2.34,4.52,2.34,7.76,0,3.61-.88,6.5-2.63,8.66-1.75,2.17-4.16,3.25-7.2,3.25-2.79,0-4.95-1.21-6.46-3.62Zm-.08-8.7v3.01c0,1.78,.58,3.3,1.74,4.54s2.63,1.86,4.41,1.86c2.09,0,3.73-.8,4.92-2.4,1.19-1.6,1.78-3.83,1.78-6.67,0-2.4-.55-4.28-1.66-5.64-1.11-1.36-2.61-2.04-4.51-2.04-2.01,0-3.62,.7-4.84,2.1-1.22,1.4-1.83,3.15-1.83,5.25Z"/><path class="g" d="M664.92,383.98c-3.19,0-5.73-1.01-7.63-3.02-1.9-2.01-2.85-4.68-2.85-8.01,0-3.62,.99-6.45,2.97-8.49,1.98-2.04,4.65-3.05,8.02-3.05s5.72,.99,7.53,2.97c1.8,1.98,2.71,4.72,2.71,8.23s-.97,6.19-2.92,8.26c-1.94,2.07-4.55,3.11-7.82,3.11Zm.25-19.67c-2.22,0-3.97,.75-5.26,2.26-1.29,1.51-1.94,3.59-1.94,6.24s.65,4.57,1.96,6.04,3.05,2.21,5.24,2.21,3.95-.72,5.15-2.17c1.2-1.45,1.8-3.5,1.8-6.17s-.6-4.77-1.8-6.23-2.92-2.19-5.15-2.19Z"/><path class="g" d="M708.34,361.91l-6.46,21.56h-3.58l-4.44-15.43c-.17-.59-.28-1.26-.34-2h-.08c-.04,.51-.19,1.16-.44,1.96l-4.82,15.48h-3.45l-6.53-21.56h3.62l4.46,16.21c.14,.49,.24,1.14,.29,1.94h.17c.04-.62,.17-1.28,.38-1.98l4.97-16.17h3.16l4.46,16.26c.14,.52,.25,1.17,.32,1.94h.17c.03-.55,.15-1.19,.36-1.94l4.38-16.26h3.41Z"/><path class="g" d="M729.67,373.56h-15.22c.06,2.4,.7,4.25,1.94,5.56,1.23,1.31,2.93,1.96,5.09,1.96,2.43,0,4.66-.8,6.7-2.4v3.24c-1.9,1.38-4.4,2.06-7.52,2.06s-5.44-.98-7.18-2.94-2.61-4.71-2.61-8.26c0-3.35,.95-6.09,2.85-8.2s4.26-3.17,7.08-3.17,5,.91,6.55,2.74c1.54,1.83,2.32,4.36,2.32,7.6v1.81Zm-3.54-2.93c-.01-1.99-.49-3.54-1.44-4.65-.95-1.11-2.26-1.66-3.95-1.66s-3.01,.58-4.15,1.75c-1.14,1.17-1.84,2.69-2.11,4.57h11.64Z"/><path class="g" d="M746.13,365.41c-.6-.46-1.47-.7-2.61-.7-1.47,0-2.71,.7-3.7,2.08-.99,1.39-1.48,3.28-1.48,5.68v10.99h-3.45v-21.56h3.45v4.44h.08c.49-1.52,1.24-2.7,2.25-3.55s2.14-1.27,3.39-1.27c.9,0,1.59,.1,2.06,.29v3.58Z"/><path class="g" d="M767.21,373.56h-15.22c.06,2.4,.7,4.25,1.94,5.56,1.23,1.31,2.93,1.96,5.09,1.96,2.43,0,4.66-.8,6.7-2.4v3.24c-1.9,1.38-4.4,2.06-7.52,2.06s-5.44-.98-7.18-2.94-2.61-4.71-2.61-8.26c0-3.35,.95-6.09,2.85-8.2s4.26-3.17,7.08-3.17,5,.91,6.55,2.74c1.54,1.83,2.32,4.36,2.32,7.6v1.81Zm-3.54-2.93c-.01-1.99-.49-3.54-1.44-4.65-.95-1.11-2.26-1.66-3.95-1.66s-3.01,.58-4.15,1.75c-1.14,1.17-1.84,2.69-2.11,4.57h11.64Z"/><path class="g" d="M790.84,383.47h-3.45v-3.66h-.08c-1.6,2.78-4.07,4.17-7.41,4.17-2.71,0-4.87-.96-6.5-2.89s-2.43-4.56-2.43-7.89c0-3.57,.9-6.42,2.69-8.57s4.19-3.22,7.18-3.22,5.12,1.17,6.46,3.5h.08v-13.35h3.45v31.92Zm-3.45-9.75v-3.18c0-1.74-.58-3.21-1.73-4.42s-2.61-1.81-4.38-1.81c-2.11,0-3.76,.77-4.97,2.32-1.21,1.54-1.81,3.68-1.81,6.4,0,2.48,.58,4.45,1.74,5.88,1.16,1.44,2.71,2.16,4.66,2.16s3.49-.69,4.69-2.08c1.2-1.39,1.8-3.14,1.8-5.26Z"/><path class="g" d="M808.33,382.69v-3.71c1.88,1.39,3.95,2.08,6.21,2.08,3.03,0,4.55-1.01,4.55-3.03,0-.58-.13-1.06-.39-1.46-.26-.4-.61-.75-1.05-1.06-.44-.31-.96-.59-1.56-.83-.6-.25-1.24-.5-1.93-.77-.96-.38-1.79-.76-2.52-1.15-.72-.39-1.33-.82-1.81-1.31-.48-.48-.85-1.03-1.09-1.65-.25-.62-.37-1.34-.37-2.17,0-1.01,.23-1.91,.69-2.68,.46-.78,1.08-1.43,1.85-1.96,.77-.53,1.65-.92,2.64-1.19,.99-.27,2.01-.4,3.06-.4,1.87,0,3.54,.32,5.01,.97v3.5c-1.59-1.04-3.41-1.56-5.47-1.56-.65,0-1.23,.07-1.75,.22-.52,.15-.97,.35-1.34,.62-.37,.27-.66,.59-.86,.96-.2,.37-.31,.78-.31,1.23,0,.56,.1,1.03,.31,1.41,.2,.38,.5,.72,.89,1.01,.39,.29,.87,.56,1.43,.8,.56,.24,1.2,.5,1.92,.78,.95,.37,1.81,.74,2.57,1.13,.76,.39,1.4,.82,1.94,1.31s.94,1.04,1.23,1.67c.29,.63,.43,1.38,.43,2.25,0,1.07-.24,1.99-.71,2.78-.47,.79-1.1,1.44-1.88,1.96-.79,.52-1.69,.91-2.72,1.16-1.02,.25-2.1,.38-3.22,.38-2.22,0-4.14-.43-5.77-1.28Z"/><path class="g" d="M837.94,383.26c-.81,.45-1.89,.67-3.22,.67-3.78,0-5.66-2.11-5.66-6.32v-12.76h-3.71v-2.95h3.71v-5.26l3.45-1.12v6.38h5.43v2.95h-5.43v12.15c0,1.45,.25,2.48,.74,3.09,.49,.62,1.31,.93,2.44,.93,.87,0,1.62-.24,2.25-.72v2.95Z"/><path class="g" d="M857.98,383.47h-3.45v-3.37h-.08c-1.5,2.58-3.71,3.87-6.63,3.87-2.15,0-3.83-.57-5.04-1.71-1.21-1.14-1.82-2.65-1.82-4.53,0-4.03,2.37-6.37,7.12-7.03l6.46-.91c0-3.66-1.48-5.5-4.44-5.5-2.6,0-4.94,.88-7.03,2.65v-3.54c2.12-1.35,4.56-2.02,7.33-2.02,5.07,0,7.6,2.68,7.6,8.04v14.02Zm-3.45-10.91l-5.2,.72c-1.6,.23-2.81,.62-3.62,1.19-.81,.57-1.22,1.58-1.22,3.02,0,1.05,.38,1.91,1.13,2.58,.75,.67,1.75,1,3,1,1.71,0,3.13-.6,4.24-1.8,1.12-1.2,1.67-2.72,1.67-4.56v-2.15Z"/><path class="g" d="M874.49,383.26c-.81,.45-1.89,.67-3.22,.67-3.78,0-5.66-2.11-5.66-6.32v-12.76h-3.71v-2.95h3.71v-5.26l3.45-1.12v6.38h5.43v2.95h-5.43v12.15c0,1.45,.25,2.48,.74,3.09,.49,.62,1.31,.93,2.44,.93,.87,0,1.62-.24,2.25-.72v2.95Z"/><path class="g" d="M880.87,356.44c-.62,0-1.14-.21-1.58-.63-.44-.42-.65-.96-.65-1.6s.22-1.18,.65-1.61c.43-.43,.96-.64,1.58-.64s1.17,.21,1.61,.64c.44,.43,.66,.96,.66,1.61s-.22,1.14-.66,1.58c-.44,.44-.98,.65-1.61,.65Zm1.68,27.04h-3.45v-21.56h3.45v21.56Z"/><path class="g" d="M904.24,382.48c-1.66,1-3.62,1.49-5.9,1.49-3.07,0-5.56-1-7.44-3s-2.83-4.59-2.83-7.78c0-3.55,1.02-6.4,3.05-8.56,2.04-2.16,4.75-3.23,8.15-3.23,1.89,0,3.56,.35,5.01,1.05v3.54c-1.6-1.12-3.31-1.68-5.14-1.68-2.2,0-4.01,.79-5.42,2.37-1.41,1.58-2.12,3.65-2.12,6.22s.66,4.52,1.99,5.98,3.11,2.19,5.34,2.19c1.88,0,3.65-.62,5.31-1.87v3.29Z"/><path class="g" d="M935.97,382.48c-1.66,1-3.62,1.49-5.9,1.49-3.07,0-5.56-1-7.44-3-1.89-2-2.83-4.59-2.83-7.78,0-3.55,1.02-6.4,3.05-8.56,2.04-2.16,4.75-3.23,8.15-3.23,1.9,0,3.57,.35,5.01,1.05v3.54c-1.6-1.12-3.31-1.68-5.14-1.68-2.2,0-4.01,.79-5.42,2.37s-2.12,3.65-2.12,6.22,.66,4.52,1.99,5.98c1.33,1.46,3.11,2.19,5.34,2.19,1.88,0,3.65-.62,5.31-1.87v3.29Z"/><path class="g" d="M950.21,383.98c-3.19,0-5.73-1.01-7.63-3.02-1.9-2.01-2.85-4.68-2.85-8.01,0-3.62,.99-6.45,2.97-8.49,1.98-2.04,4.65-3.05,8.02-3.05s5.72,.99,7.53,2.97,2.71,4.72,2.71,8.23-.97,6.19-2.92,8.26c-1.94,2.07-4.55,3.11-7.82,3.11Zm.25-19.67c-2.22,0-3.97,.75-5.26,2.26-1.29,1.51-1.94,3.59-1.94,6.24s.65,4.57,1.96,6.04c1.31,1.47,3.05,2.21,5.24,2.21s3.95-.72,5.15-2.17c1.2-1.45,1.8-3.5,1.8-6.17s-.6-4.77-1.8-6.23-2.92-2.19-5.15-2.19Z"/><path class="g" d="M984.86,383.47h-3.45v-3.66h-.08c-1.6,2.78-4.07,4.17-7.41,4.17-2.71,0-4.88-.96-6.5-2.89s-2.43-4.56-2.43-7.89c0-3.57,.9-6.42,2.7-8.57,1.8-2.15,4.19-3.22,7.18-3.22s5.12,1.17,6.46,3.5h.08v-13.35h3.45v31.92Zm-3.45-9.75v-3.18c0-1.74-.58-3.21-1.73-4.42-1.15-1.21-2.61-1.81-4.38-1.81-2.11,0-3.76,.77-4.97,2.32-1.21,1.54-1.81,3.68-1.81,6.4,0,2.48,.58,4.45,1.74,5.88,1.16,1.44,2.71,2.16,4.66,2.16s3.48-.69,4.68-2.08c1.2-1.39,1.8-3.14,1.8-5.26Z"/><path class="g" d="M1009.18,373.56h-15.22c.06,2.4,.7,4.25,1.94,5.56s2.93,1.96,5.1,1.96c2.43,0,4.66-.8,6.7-2.4v3.24c-1.89,1.38-4.4,2.06-7.52,2.06s-5.44-.98-7.18-2.94c-1.74-1.96-2.61-4.71-2.61-8.26,0-3.35,.95-6.09,2.85-8.2s4.26-3.17,7.09-3.17,5,.91,6.55,2.74c1.54,1.83,2.32,4.36,2.32,7.6v1.81Zm-3.54-2.93c-.01-1.99-.5-3.54-1.44-4.65-.95-1.11-2.26-1.66-3.95-1.66s-3.01,.58-4.15,1.75c-1.14,1.17-1.84,2.69-2.11,4.57h11.64Z"/><path class="g" d="M1041.65,383.47h-3.45v-3.37h-.08c-1.5,2.58-3.71,3.87-6.63,3.87-2.15,0-3.83-.57-5.04-1.71-1.21-1.14-1.82-2.65-1.82-4.53,0-4.03,2.37-6.37,7.12-7.03l6.46-.91c0-3.66-1.48-5.5-4.44-5.5-2.6,0-4.94,.88-7.03,2.65v-3.54c2.12-1.35,4.56-2.02,7.33-2.02,5.07,0,7.6,2.68,7.6,8.04v14.02Zm-3.45-10.91l-5.2,.72c-1.6,.23-2.81,.62-3.62,1.19s-1.22,1.58-1.22,3.02c0,1.05,.38,1.91,1.13,2.58s1.75,1,3,1c1.71,0,3.13-.6,4.24-1.8,1.12-1.2,1.67-2.72,1.67-4.56v-2.15Z"/><path class="g" d="M1066.06,383.47h-3.45v-12.3c0-4.58-1.67-6.86-5.01-6.86-1.73,0-3.15,.65-4.28,1.95s-1.7,2.94-1.7,4.92v12.3h-3.45v-21.56h3.45v3.58h.08c1.63-2.72,3.99-4.08,7.08-4.08,2.36,0,4.16,.76,5.41,2.28,1.25,1.52,1.87,3.72,1.87,6.6v13.18Z"/><path class="g" d="M1088,383.47h-3.45v-3.37h-.08c-1.5,2.58-3.71,3.87-6.63,3.87-2.15,0-3.83-.57-5.04-1.71-1.21-1.14-1.82-2.65-1.82-4.53,0-4.03,2.37-6.37,7.12-7.03l6.46-.91c0-3.66-1.48-5.5-4.44-5.5-2.6,0-4.94,.88-7.03,2.65v-3.54c2.12-1.35,4.56-2.02,7.33-2.02,5.07,0,7.6,2.68,7.6,8.04v14.02Zm-3.45-10.91l-5.2,.72c-1.6,.23-2.81,.62-3.62,1.19s-1.22,1.58-1.22,3.02c0,1.05,.38,1.91,1.13,2.58s1.75,1,3,1c1.71,0,3.13-.6,4.24-1.8,1.12-1.2,1.67-2.72,1.67-4.56v-2.15Z"/><path class="g" d="M1097.96,383.47h-3.45v-31.92h3.45v31.92Z"/><path class="g" d="M1122.11,361.91l-9.92,25.01c-1.77,4.46-4.25,6.7-7.45,6.7-.9,0-1.65-.09-2.25-.27v-3.09c.74,.25,1.42,.38,2.04,.38,1.74,0,3.05-1.04,3.92-3.12l1.73-4.08-8.42-21.52h3.83l5.83,16.59c.07,.21,.22,.76,.44,1.64h.13c.07-.34,.21-.87,.42-1.6l6.13-16.63h3.58Z"/><path class="g" d="M1124.51,382.69v-3.71c1.88,1.39,3.95,2.08,6.21,2.08,3.03,0,4.55-1.01,4.55-3.03,0-.58-.13-1.06-.39-1.46-.26-.4-.61-.75-1.05-1.06s-.96-.59-1.56-.83c-.6-.25-1.24-.5-1.93-.77-.96-.38-1.79-.76-2.52-1.15-.72-.39-1.33-.82-1.81-1.31-.48-.48-.85-1.03-1.09-1.65-.25-.62-.37-1.34-.37-2.17,0-1.01,.23-1.91,.7-2.68s1.08-1.43,1.85-1.96c.77-.53,1.65-.92,2.64-1.19,.99-.27,2.01-.4,3.06-.4,1.87,0,3.54,.32,5.01,.97v3.5c-1.59-1.04-3.41-1.56-5.47-1.56-.65,0-1.23,.07-1.75,.22-.52,.15-.96,.35-1.34,.62s-.66,.59-.86,.96c-.2,.37-.3,.78-.3,1.23,0,.56,.1,1.03,.3,1.41,.2,.38,.5,.72,.9,1.01,.39,.29,.87,.56,1.43,.8,.56,.24,1.2,.5,1.92,.78,.95,.37,1.81,.74,2.57,1.13,.76,.39,1.4,.82,1.94,1.31s.94,1.04,1.23,1.67c.29,.63,.43,1.38,.43,2.25,0,1.07-.24,1.99-.71,2.78-.47,.79-1.1,1.44-1.88,1.96-.79,.52-1.69,.91-2.72,1.16-1.02,.25-2.1,.38-3.22,.38-2.22,0-4.14-.43-5.77-1.28Z"/><path class="g" d="M1145.88,356.44c-.62,0-1.14-.21-1.58-.63s-.65-.96-.65-1.6,.22-1.18,.65-1.61c.44-.43,.96-.64,1.58-.64s1.17,.21,1.61,.64c.44,.43,.66,.96,.66,1.61s-.22,1.14-.66,1.58c-.44,.44-.98,.65-1.61,.65Zm1.68,27.04h-3.45v-21.56h3.45v21.56Z"/><path class="g" d="M1153.25,382.69v-3.71c1.88,1.39,3.95,2.08,6.21,2.08,3.03,0,4.55-1.01,4.55-3.03,0-.58-.13-1.06-.39-1.46-.26-.4-.61-.75-1.05-1.06s-.96-.59-1.56-.83c-.6-.25-1.24-.5-1.93-.77-.96-.38-1.79-.76-2.52-1.15-.72-.39-1.33-.82-1.81-1.31-.48-.48-.85-1.03-1.09-1.65-.25-.62-.37-1.34-.37-2.17,0-1.01,.23-1.91,.7-2.68s1.08-1.43,1.85-1.96c.77-.53,1.65-.92,2.64-1.19,.99-.27,2.01-.4,3.06-.4,1.87,0,3.54,.32,5.01,.97v3.5c-1.59-1.04-3.41-1.56-5.47-1.56-.65,0-1.23,.07-1.75,.22-.52,.15-.96,.35-1.34,.62s-.66,.59-.86,.96c-.2,.37-.3,.78-.3,1.23,0,.56,.1,1.03,.3,1.41,.2,.38,.5,.72,.9,1.01,.39,.29,.87,.56,1.43,.8,.56,.24,1.2,.5,1.92,.78,.95,.37,1.81,.74,2.57,1.13,.76,.39,1.4,.82,1.94,1.31s.94,1.04,1.23,1.67c.29,.63,.43,1.38,.43,2.25,0,1.07-.24,1.99-.71,2.78-.47,.79-1.1,1.44-1.88,1.96-.79,.52-1.69,.91-2.72,1.16-1.02,.25-2.1,.38-3.22,.38-2.22,0-4.14-.43-5.77-1.28Z"/><path class="g" d="M1195.32,354.59c-.67-.38-1.44-.57-2.29-.57-2.42,0-3.62,1.52-3.62,4.57v3.33h5.05v2.95h-5.05v18.61h-3.43v-18.61h-3.68v-2.95h3.68v-3.5c0-2.26,.65-4.05,1.96-5.36s2.93-1.97,4.88-1.97c1.05,0,1.89,.13,2.51,.38v3.12Z"/><path class="g" d="M1207.17,383.98c-3.19,0-5.73-1.01-7.63-3.02-1.9-2.01-2.85-4.68-2.85-8.01,0-3.62,.99-6.45,2.97-8.49,1.98-2.04,4.65-3.05,8.02-3.05s5.72,.99,7.53,2.97,2.71,4.72,2.71,8.23-.97,6.19-2.92,8.26c-1.94,2.07-4.55,3.11-7.82,3.11Zm.25-19.67c-2.22,0-3.97,.75-5.26,2.26-1.29,1.51-1.94,3.59-1.94,6.24s.65,4.57,1.96,6.04c1.31,1.47,3.05,2.21,5.24,2.21s3.95-.72,5.15-2.17c1.2-1.45,1.8-3.5,1.8-6.17s-.6-4.77-1.8-6.23-2.92-2.19-5.15-2.19Z"/><path class="g" d="M1234.67,365.41c-.6-.46-1.47-.7-2.61-.7-1.47,0-2.71,.7-3.7,2.08-.99,1.39-1.48,3.28-1.48,5.68v10.99h-3.45v-21.56h3.45v4.44h.08c.49-1.52,1.24-2.7,2.25-3.55s2.14-1.27,3.39-1.27c.9,0,1.59,.1,2.06,.29v3.58Z"/></g><g class="c"><path class="g" d="M1267.43,383.47h-16.95v-30.19h16.28v4.25h-11.26v8.55h10.38v4.23h-10.38v8.93h11.94v4.23Z"/><path class="g" d="M1304.49,383.47h-4.88v-11.75c0-2.26-.32-3.9-.96-4.91s-1.72-1.52-3.23-1.52c-1.28,0-2.36,.64-3.25,1.92s-1.34,2.81-1.34,4.59v11.67h-4.91v-12.15c0-4.01-1.42-6.02-4.25-6.02-1.32,0-2.4,.6-3.25,1.81-.85,1.21-1.27,2.77-1.27,4.7v11.67h-4.88v-21.56h4.88v3.41h.08c1.56-2.61,3.83-3.92,6.8-3.92,1.49,0,2.79,.41,3.91,1.23s1.88,1.9,2.29,3.23c1.6-2.98,3.99-4.46,7.16-4.46,4.75,0,7.12,2.93,7.12,8.78v13.29Z"/><path class="g" d="M1315.42,380.36h-.08v3.12h-4.88v-31.92h4.88v14.15h.08c1.67-2.86,4.11-4.29,7.33-4.29,2.72,0,4.85,.96,6.39,2.9,1.54,1.93,2.31,4.52,2.31,7.76,0,3.61-.86,6.5-2.59,8.66s-4.08,3.25-7.07,3.25c-2.81,0-4.93-1.21-6.36-3.62Zm-.13-8.57v2.67c0,1.57,.5,2.91,1.51,4,1,1.1,2.28,1.64,3.82,1.64,1.81,0,3.23-.71,4.26-2.12,1.03-1.41,1.55-3.38,1.55-5.91,0-2.12-.48-3.78-1.44-4.98-.96-1.2-2.26-1.8-3.91-1.8-1.74,0-3.14,.62-4.2,1.85-1.06,1.24-1.59,2.78-1.59,4.63Z"/><path class="g" d="M1352.47,383.47h-4.74v-3.37h-.08c-1.49,2.58-3.67,3.87-6.55,3.87-2.12,0-3.78-.58-4.98-1.73-1.2-1.15-1.8-2.67-1.8-4.57,0-4.07,2.34-6.44,7.03-7.12l6.4-.91c0-3.07-1.46-4.61-4.38-4.61-2.57,0-4.89,.88-6.95,2.65v-4.27c2.27-1.35,4.9-2.02,7.88-2.02,5.45,0,8.17,2.68,8.17,8.04v14.02Zm-4.72-10.59l-4.53,.63c-1.4,.18-2.46,.52-3.17,1.02-.71,.5-1.06,1.37-1.06,2.62,0,.91,.33,1.66,.98,2.24,.65,.58,1.53,.87,2.62,.87,1.49,0,2.72-.52,3.7-1.57,.98-1.04,1.46-2.36,1.46-3.95v-1.87Z"/><path class="g" d="M1370.94,366.57c-.59-.46-1.44-.69-2.55-.69-1.45,0-2.65,.65-3.62,1.96-.97,1.31-1.45,3.08-1.45,5.33v10.32h-4.89v-21.56h4.89v4.44h.08c.48-1.52,1.21-2.7,2.2-3.55s2.09-1.27,3.32-1.27c.88,0,1.56,.13,2.02,.4v4.63Z"/><path class="g" d="M1389.45,382.48c-1.73,1-3.77,1.49-6.13,1.49-3.2,0-5.78-1-7.75-3-1.97-2-2.95-4.59-2.95-7.78,0-3.55,1.06-6.4,3.17-8.56,2.11-2.16,4.94-3.23,8.48-3.23,1.96,0,3.7,.34,5.2,1.03v4.55c-1.5-1.12-3.1-1.68-4.8-1.68-2.06,0-3.75,.7-5.07,2.09-1.32,1.4-1.98,3.23-1.98,5.49s.62,3.99,1.86,5.29c1.24,1.29,2.91,1.94,5,1.94,1.75,0,3.41-.62,4.97-1.87v4.25Z"/><path class="g" d="M1410.84,383.47h-4.74v-3.37h-.08c-1.49,2.58-3.67,3.87-6.55,3.87-2.12,0-3.78-.58-4.98-1.73-1.2-1.15-1.8-2.67-1.8-4.57,0-4.07,2.34-6.44,7.03-7.12l6.4-.91c0-3.07-1.46-4.61-4.38-4.61-2.57,0-4.89,.88-6.95,2.65v-4.27c2.27-1.35,4.9-2.02,7.88-2.02,5.45,0,8.17,2.68,8.17,8.04v14.02Zm-4.72-10.59l-4.53,.63c-1.4,.18-2.46,.52-3.17,1.02-.71,.5-1.06,1.37-1.06,2.62,0,.91,.33,1.66,.98,2.24,.65,.58,1.53,.87,2.62,.87,1.49,0,2.72-.52,3.7-1.57,.98-1.04,1.46-2.36,1.46-3.95v-1.87Z"/><path class="g" d="M1436.4,383.47h-4.88v-3.66h-.08c-1.57,2.78-3.99,4.17-7.26,4.17-2.65,0-4.78-.96-6.37-2.89s-2.39-4.56-2.39-7.89c0-3.57,.88-6.42,2.64-8.57s4.11-3.22,7.04-3.22,5.02,1.17,6.34,3.5h.08v-13.35h4.88v31.92Zm-4.82-9.85v-2.82c0-1.53-.5-2.83-1.5-3.9-1-1.07-2.27-1.6-3.81-1.6-1.82,0-3.26,.68-4.31,2.04-1.05,1.36-1.57,3.25-1.57,5.66,0,2.19,.5,3.92,1.51,5.19,1,1.27,2.35,1.91,4.05,1.91s3.02-.61,4.06-1.84,1.56-2.78,1.56-4.64Z"/><path class="g" d="M1461.04,374.02h-14.7c.06,1.99,.67,3.53,1.84,4.61s2.78,1.62,4.83,1.62c2.3,0,4.41-.69,6.34-2.06v3.94c-1.97,1.24-4.56,1.85-7.79,1.85s-5.66-.98-7.46-2.94c-1.8-1.96-2.71-4.71-2.71-8.26,0-3.35,.99-6.09,2.98-8.2s4.45-3.17,7.4-3.17,5.23,.95,6.84,2.84c1.61,1.89,2.42,4.53,2.42,7.9v1.87Zm-4.72-3.45c-.01-1.75-.43-3.12-1.24-4.1-.81-.97-1.94-1.46-3.37-1.46s-2.59,.51-3.57,1.54-1.58,2.37-1.8,4.02h9.98Z"/><path class="g" d="M1478.2,366.57c-.59-.46-1.44-.69-2.55-.69-1.45,0-2.65,.65-3.62,1.96-.97,1.31-1.45,3.08-1.45,5.33v10.32h-4.89v-21.56h4.89v4.44h.08c.48-1.52,1.21-2.7,2.2-3.55s2.09-1.27,3.32-1.27c.88,0,1.56,.13,2.02,.4v4.63Z"/><path class="g" d="M1490.83,383.98c-3.33,0-5.98-1.01-7.97-3.02-1.99-2.01-2.98-4.68-2.98-8.01,0-3.62,1.04-6.45,3.11-8.49,2.07-2.04,4.86-3.05,8.37-3.05s5.99,.99,7.88,2.97,2.82,4.72,2.82,8.23-1.01,6.19-3.04,8.26c-2.03,2.07-4.76,3.11-8.18,3.11Zm.23-18.68c-1.91,0-3.42,.67-4.53,2-1.11,1.33-1.66,3.17-1.66,5.52s.56,4.04,1.68,5.34,2.62,1.95,4.51,1.95,3.4-.64,4.43-1.92c1.03-1.28,1.55-3.09,1.55-5.45s-.52-4.2-1.55-5.5c-1.03-1.29-2.51-1.94-4.43-1.94Z"/><path class="g" d="M1519.42,383.47v-30.19h8.72c11.13,0,16.7,4.91,16.7,14.72,0,4.66-1.54,8.4-4.63,11.23-3.09,2.83-7.23,4.24-12.42,4.24h-8.36Zm4.99-25.94v21.71h4c3.52,0,6.26-.97,8.22-2.91,1.96-1.94,2.94-4.67,2.94-8.21,0-7.06-3.66-10.59-10.97-10.59h-4.19Z"/><path class="g" d="M1568.06,374.02h-14.7c.06,1.99,.67,3.53,1.84,4.61s2.78,1.62,4.83,1.62c2.3,0,4.42-.69,6.34-2.06v3.94c-1.96,1.24-4.56,1.85-7.79,1.85s-5.66-.98-7.46-2.94c-1.8-1.96-2.71-4.71-2.71-8.26,0-3.35,.99-6.09,2.98-8.2s4.45-3.17,7.4-3.17,5.23,.95,6.84,2.84c1.61,1.89,2.42,4.53,2.42,7.9v1.87Zm-4.72-3.45c-.01-1.75-.43-3.12-1.24-4.1-.81-.97-1.94-1.46-3.37-1.46s-2.59,.51-3.57,1.54c-.98,1.02-1.58,2.37-1.8,4.02h9.98Z"/><path class="g" d="M1577.62,383.47h-4.91v-31.92h4.91v31.92Z"/><path class="g" d="M1588.95,380.29h-.08v13.1h-4.88v-31.48h4.88v3.79h.08c1.67-2.86,4.11-4.29,7.33-4.29,2.74,0,4.87,.96,6.4,2.88,1.53,1.92,2.29,4.51,2.29,7.75,0,3.59-.86,6.47-2.59,8.63-1.73,2.16-4.08,3.24-7.07,3.24-2.75,0-4.87-1.21-6.36-3.62Zm-.13-8.51v2.67c0,1.57,.5,2.91,1.5,4,1,1.1,2.28,1.64,3.82,1.64,1.81,0,3.23-.71,4.26-2.12,1.03-1.41,1.55-3.38,1.55-5.91,0-2.12-.48-3.78-1.44-4.98-.96-1.2-2.26-1.8-3.91-1.8-1.74,0-3.14,.62-4.2,1.85-1.06,1.24-1.59,2.78-1.59,4.63Z"/><path class="g" d="M1629.12,383.47h-4.88v-11.79c0-4.27-1.42-6.4-4.27-6.4-1.43,0-2.64,.62-3.62,1.85-.98,1.24-1.47,2.81-1.47,4.74v11.6h-4.91v-31.92h4.91v13.94h.08c1.63-2.72,3.96-4.08,6.99-4.08,4.79,0,7.18,2.93,7.18,8.78v13.29Z"/><path class="g" d="M1637.53,357.39c-.8,0-1.48-.26-2.05-.78s-.85-1.18-.85-1.98,.28-1.47,.85-2,1.25-.8,2.05-.8,1.53,.27,2.11,.8c.58,.53,.86,1.2,.86,2s-.29,1.41-.86,1.95c-.58,.54-1.28,.81-2.11,.81Zm2.42,26.09h-4.88v-21.56h4.88v21.56Z"/></g><g class="c"><path class="g" d="M395.75,294.69v-29.61c6.01,3.62,12.01,6.32,17.98,8.09,5.97,1.78,11.62,2.66,16.94,2.66,6.48,0,11.58-.88,15.32-2.66,3.74-1.77,5.61-4.47,5.61-8.09,0-2.31-.85-4.24-2.54-5.78-1.7-1.54-3.87-2.89-6.53-4.05-2.66-1.16-5.57-2.2-8.73-3.12-3.16-.92-6.21-1.97-9.14-3.12-4.7-1.77-8.85-3.68-12.43-5.72-3.58-2.04-6.59-4.41-9.02-7.11-2.43-2.7-4.28-5.82-5.55-9.37-1.27-3.54-1.91-7.75-1.91-12.61,0-6.63,1.45-12.33,4.34-17.12,2.89-4.78,6.75-8.69,11.56-11.74,4.82-3.04,10.33-5.28,16.54-6.71,6.21-1.43,12.66-2.14,19.37-2.14,5.24,0,10.56,.41,15.96,1.21,5.4,.81,10.72,1.99,15.96,3.53v28.22c-4.63-2.7-9.58-4.72-14.86-6.07-5.28-1.35-10.47-2.02-15.55-2.02-2.39,0-4.65,.21-6.77,.64-2.12,.42-3.99,1.04-5.61,1.85s-2.89,1.85-3.82,3.12c-.93,1.27-1.39,2.72-1.39,4.34,0,2.16,.69,4.01,2.08,5.55,1.39,1.54,3.2,2.87,5.44,3.99,2.24,1.12,4.72,2.12,7.46,3.01,2.74,.89,5.45,1.79,8.15,2.72,4.86,1.7,9.25,3.55,13.18,5.55,3.93,2.01,7.3,4.36,10.12,7.05,2.81,2.7,4.97,5.86,6.48,9.48,1.5,3.62,2.25,7.94,2.25,12.95,0,7.02-1.52,13.01-4.57,17.98-3.05,4.97-7.09,9.02-12.14,12.14-5.05,3.12-10.87,5.4-17.46,6.82s-13.44,2.14-20.53,2.14c-13.03,0-25.1-2.01-36.2-6.01Z"/><path class="g" d="M564.14,300.7c-19.74,0-35.25-5.53-46.55-16.6-11.3-11.06-16.94-26.08-16.94-45.05s5.86-34.91,17.58-45.97c11.72-11.06,27.56-16.6,47.53-16.6s35.08,5.53,46.26,16.6c11.18,11.06,16.77,25.69,16.77,43.89,0,19.66-5.76,35.2-17.29,46.61-11.53,11.41-27.31,17.12-47.36,17.12Zm.93-96.22c-8.64,0-15.34,2.97-20.12,8.91-4.78,5.94-7.17,14.34-7.17,25.21,0,22.75,9.17,34.12,27.52,34.12s26.25-11.68,26.25-35.04c0-22.13-8.83-33.19-26.48-33.19Z"/><path class="g" d="M766.87,297.81h-36.43v-65.81c0-18.35-6.55-27.52-19.66-27.52-6.32,0-11.53,2.43-15.61,7.29-4.09,4.86-6.13,11.03-6.13,18.5v67.54h-36.55v-118.43h36.55v18.74h.46c8.71-14.42,21.4-21.63,38.05-21.63,26.21,0,39.32,16.27,39.32,48.8v72.51Z"/><path class="g" d="M894.32,297.81h-34.58v-17h-.46c-7.94,13.26-19.7,19.89-35.27,19.89-11.49,0-20.53-3.26-27.12-9.77-6.59-6.51-9.89-15.21-9.89-26.08,0-22.98,13.61-36.24,40.82-39.78l32.15-4.28c0-12.95-7.02-19.43-21.05-19.43s-27.52,4.2-40.25,12.61v-27.52c5.09-2.62,12.05-4.93,20.88-6.94,8.83-2,16.87-3.01,24.11-3.01,33.77,0,50.66,16.85,50.66,50.54v70.78Zm-34.35-48.11v-7.98l-21.51,2.78c-11.87,1.54-17.81,6.9-17.81,16.08,0,4.16,1.45,7.58,4.34,10.24,2.89,2.66,6.8,3.99,11.74,3.99,6.86,0,12.45-2.37,16.77-7.11,4.32-4.74,6.48-10.74,6.48-17.98Z"/><path class="g" d="M1000.48,212.34c-4.39-2.39-9.52-3.58-15.38-3.58-7.94,0-14.15,2.91-18.62,8.73-4.47,5.82-6.71,13.74-6.71,23.77v56.55h-36.54v-118.43h36.54v21.97h.46c5.78-16.04,16.19-24.06,31.22-24.06,3.85,0,6.86,.46,9.02,1.39v33.65Z"/></g><g class="c"><path class="g" d="M1023.63,297.81V131.97h43.6c28.37,0,49.8,6.8,64.3,20.41,14.49,13.61,21.74,33.71,21.74,60.31,0,12.8-2.02,24.44-6.07,34.93-4.05,10.49-9.89,19.45-17.52,26.89-7.63,7.44-16.88,13.18-27.76,17.23-10.87,4.05-23.13,6.07-36.78,6.07h-41.52Zm15.38-151.73v137.74h25.44c11.41,0,21.61-1.54,30.59-4.63,8.98-3.08,16.6-7.61,22.84-13.59,6.25-5.97,11-13.36,14.28-22.15,3.28-8.79,4.92-18.89,4.92-30.3,0-44.72-23.63-67.08-70.89-67.08h-27.18Z"/><path class="g" d="M1191.09,241.26c.08,7.25,1.04,13.76,2.89,19.55,1.85,5.78,4.51,10.68,7.98,14.69,3.47,4.01,7.69,7.07,12.66,9.19,4.97,2.12,10.58,3.18,16.83,3.18,13.34,0,25.94-4.66,37.82-13.99v14.57c-11.33,8.09-25.06,12.14-41.17,12.14-7.94,0-15.15-1.39-21.63-4.16s-11.99-6.8-16.54-12.09c-4.55-5.28-8.06-11.78-10.52-19.49-2.47-7.71-3.7-16.5-3.7-26.37,0-8.87,1.35-17.08,4.05-24.63,2.7-7.55,6.44-14.09,11.22-19.6,4.78-5.51,10.45-9.83,17-12.95,6.55-3.12,13.72-4.68,21.51-4.68s14.38,1.33,20.24,3.99c5.86,2.66,10.77,6.46,14.75,11.39,3.97,4.94,7,10.95,9.08,18.04,2.08,7.09,3.12,15.04,3.12,23.82v7.4h-85.58Zm70.32-12.95c-.23-12.33-3.16-21.9-8.79-28.68-5.63-6.78-13.46-10.18-23.48-10.18-5.01,0-9.66,.89-13.94,2.66-4.28,1.77-8.04,4.34-11.28,7.69-3.24,3.35-5.92,7.44-8.04,12.26-2.12,4.82-3.61,10.24-4.45,16.25h69.97Z"/><path class="g" d="M1305.7,297.81V122.49h14.8v175.32h-14.8Z"/><path class="g" d="M1373.47,278.73v73.55h-14.8V179.38h14.8v22.67h.46c4.39-8.25,10.27-14.55,17.64-18.91,7.36-4.36,15.67-6.53,24.92-6.53,7.55,0,14.32,1.37,20.3,4.11,5.97,2.74,11.02,6.61,15.15,11.62,4.12,5.01,7.29,11.1,9.48,18.27,2.2,7.17,3.3,15.23,3.3,24.17,0,9.79-1.23,18.72-3.7,26.77-2.47,8.06-6.01,14.98-10.64,20.76s-10.24,10.27-16.83,13.47c-6.59,3.2-14.01,4.8-22.26,4.8-16.65,0-29.11-7.29-37.35-21.86h-.46Zm0-30.19c0,5.4,.91,10.47,2.72,15.21,1.81,4.74,4.34,8.91,7.58,12.49s7.15,6.42,11.74,8.5c4.59,2.08,9.66,3.12,15.21,3.12,5.94,0,11.29-1.25,16.08-3.76,4.78-2.5,8.85-6.07,12.2-10.7,3.35-4.63,5.94-10.21,7.75-16.77,1.81-6.55,2.72-13.88,2.72-21.97,0-6.94-.85-13.2-2.54-18.79-1.7-5.59-4.11-10.35-7.23-14.28-3.12-3.93-6.9-6.94-11.33-9.02-4.43-2.08-9.39-3.12-14.86-3.12-6.17,0-11.72,1.14-16.65,3.41-4.93,2.28-9.14,5.38-12.61,9.31-3.47,3.93-6.13,8.54-7.98,13.82-1.85,5.28-2.78,10.89-2.78,16.83v15.73Z"/><path class="g" d="M1574.47,297.81v-69.62c0-13.26-2.39-23.03-7.17-29.32-4.78-6.28-12.22-9.42-22.32-9.42-4.78,0-9.33,.96-13.65,2.89-4.32,1.93-8.09,4.7-11.33,8.33-3.24,3.62-5.82,8.04-7.75,13.24-1.93,5.2-2.89,11.08-2.89,17.64v66.27h-14.8V122.49h14.8v77.37h.46c9.25-15.5,22.51-23.25,39.78-23.25,13.18,0,23.09,4.05,29.72,12.14,6.63,8.1,9.95,20.05,9.95,35.85v73.21h-14.8Z"/><path class="g" d="M1632.18,149.43c-2.85,0-5.32-1-7.4-3.01-2.08-2-3.12-4.55-3.12-7.63s1.04-5.49,3.12-7.46c2.08-1.97,4.55-2.95,7.4-2.95,1.46,0,2.85,.25,4.16,.75,1.31,.5,2.45,1.21,3.41,2.14,.96,.92,1.73,2.02,2.31,3.3,.58,1.27,.87,2.68,.87,4.22s-.27,2.85-.81,4.16c-.54,1.31-1.31,2.45-2.31,3.41-1,.96-2.14,1.72-3.41,2.25-1.27,.54-2.68,.81-4.22,.81Zm-7.29,148.38v-118.43h14.8v118.43h-14.8Z"/></g></g></svg>