<?xml version="1.0" encoding="utf-8"?>
<!-- Generator: Adobe Illustrator 27.0.0, SVG Export Plug-In . SVG Version: 6.00 Build 0)  -->
<svg version="1.1" xmlns="http://www.w3.org/2000/svg" xmlns:xlink="http://www.w3.org/1999/xlink" x="0px" y="0px"
	 viewBox="0 0 400.4 759.4" style="enable-background:new 0 0 400.4 759.4;" xml:space="preserve">
<style type="text/css">
	.st0{fill:#E42527;}
	.st1{fill:#4C9BD6;}
	.st2{fill:#7B287D;}
	.st3{fill:#FFFFFF;}
	.st4{font-family:'SegoeUI-Bold';}
	.st5{font-size:155.6103px;}
	.st6{font-family:'SegoeUI-Semilight';}
	.st7{font-size:150.1859px;}
</style>
<g id="Layer_1">
	<path class="st0" d="M359.6,300.8c-11.3-108.5-92.7-118.3-93.2-118.8c-8.2-1-16.4-1.5-24.1-1.5c-94.2,0-119.3,74.8-120.8,79.9
		c-0.5,3.6-9.7,54.8-5.6,107c1.5-0.5,3.6-0.5,5.1-0.5c11.8,0,22,8.2,24.6,19.5c4.1,17.9,0.5,38.4-0.5,44.5
		c46.6,46.6,134.1,76.8,157.2,84L270,341.3c-7.2-0.5-25.6-2-53.2-9.2c-20-5.6-22.5-15.9-22.5-21.5c0.5-12.3,14.3-24.1,33.8-28.7
		c4.6-1,9.7-1.5,14.8-1.5c25.6,0,44.5,13.8,45.6,14.3l1.5,1l5.6,68.1l16.9,6.7l8.2-9.7l-11.3-63l1-1.5c8.7-10.8,16.9-16.4,24.6-16.4
		c9.2,0,16.4,8.7,18.4,23.6c2.6,18.9-11.3,31.2-16.4,34.8l8.7,173.1c12.8-12.3,15.4-33.3,15.9-35.8
		C359,434.5,359.6,306.5,359.6,300.8L359.6,300.8z"/>
	<path class="st1" d="M255.1,136c22,0,37.9,4.1,41,4.6h15.4c7.7-7.7,18.4-23,30.2-51.7l4.6-17.8c0,0-30.7-23.2-108.1-15.5
		c-77.8,7.7-198.1,76.8-167.4,242.2l42.5-30.7l2-8.7C137.3,151.9,212.6,136,255.1,136L255.1,136z"/>
	<path class="st2" d="M295.1,148.3c0,0-16.9-4.6-39.4-4.6c-43,0-95.7,15.4-122.4,81.9c17.9-24.1,51.2-51.7,109.6-51.7
		c8.2,0,16.4,0.5,24.6,1.5c0.5,0,12.8,1.5,28.7,9.2l16.4-36.4L295.1,148.3z"/>
	<path class="st1" d="M56.1,302.8c0,0-41.4-135,65.6-221.4c118.9-96,227.7-20.2,227.7-20.2S236.9,1.8,133.3,85.7
		C27.1,171.6,56.1,302.8,56.1,302.8z"/>
	<path class="st1" d="M42.6,312.4c0,0-44-163.1,63-249.5c118.9-96,251.2-13,251.2-13S220.9-16.8,117.3,67.1
		C11.2,153,42.6,312.4,42.6,312.4z"/>
	<path class="st1" d="M29.9,315.9c0,0-54.6-174.2,59.9-266.5C217-53.1,358.6,35.6,358.6,35.6S213.1-35.7,102.2,53.9
		C-11.4,145.7,29.9,315.9,29.9,315.9z"/>
</g>
<g id="Layer_2">
	<text transform="matrix(1 0 0 1 -3.9705 597.8669)" class="st3 st4 st5">sonar</text>
	<text transform="matrix(1 0 0 1 -11.326 724.8151)" class="st3 st6 st7">Delphi</text>
</g>
</svg>
